<svg width="49" height="15" viewBox="0 0 49 15" fill="none" xmlns="http://www.w3.org/2000/svg">
<path d="M0.292893 6.65685C-0.0976311 7.04737 -0.0976311 7.68054 0.292893 8.07106L6.65685 14.435C7.04738 14.8255 7.68054 14.8255 8.07107 14.435C8.46159 14.0445 8.46159 13.4113 8.07107 13.0208L2.41421 7.36395L8.07107 1.7071C8.46159 1.31657 8.46159 0.683409 8.07107 0.292885C7.68054 -0.0976396 7.04738 -0.0976396 6.65685 0.292885L0.292893 6.65685ZM48.7071 8.07106C49.0976 7.68054 49.0976 7.04737 48.7071 6.65685L42.3431 0.292885C41.9526 -0.0976396 41.3195 -0.0976396 40.9289 0.292885C40.5384 0.683409 40.5384 1.31657 40.9289 1.7071L46.5858 7.36395L40.9289 13.0208C40.5384 13.4113 40.5384 14.0445 40.9289 14.435C41.3195 14.8255 41.9526 14.8255 42.3431 14.435L48.7071 8.07106ZM1 7.36395L1 8.36395L48 8.36395L48 7.36395L48 6.36395L1 6.36395L1 7.36395Z" fill="#49B218"/>
</svg>
