<svg preserveAspectRatio="none" width="100%" height="100%" overflow="visible" style="display: block;" viewBox="0 0 49 14.7279" fill="none" xmlns="http://www.w3.org/2000/svg">
<path id="Arrow 35" d="M0.292893 6.65685C-0.0976311 7.04738 -0.0976311 7.68054 0.292893 8.07107L6.65685 14.435C7.04738 14.8256 7.68054 14.8256 8.07107 14.435C8.46159 14.0445 8.46159 13.4113 8.07107 13.0208L2.41421 7.36396L8.07107 1.70711C8.46159 1.31658 8.46159 0.683418 8.07107 0.292893C7.68054 -0.097631 7.04738 -0.097631 6.65685 0.292893L0.292893 6.65685ZM48.7071 8.07107C49.0976 7.68054 49.0976 7.04738 48.7071 6.65685L42.3431 0.292893C41.9526 -0.097631 41.3195 -0.097631 40.9289 0.292893C40.5384 0.683418 40.5384 1.31658 40.9289 1.70711L46.5858 7.36396L40.9289 13.0208C40.5384 13.4113 40.5384 14.0445 40.9289 14.435C41.3195 14.8256 41.9526 14.8256 42.3431 14.435L48.7071 8.07107ZM1 7.36396V8.36396H48V7.36396V6.36396H1V7.36396Z" fill="var(--stroke-0, black)"/>
</svg>
