<svg preserveAspectRatio="none" width="100%" height="100%" overflow="visible" style="display: block;" viewBox="0 0 563.5 39.5278" fill="none" xmlns="http://www.w3.org/2000/svg">
<path id="Vector 8" d="M1.38655 5.13896C0.87714 4.92561 0.291229 5.16562 0.0778844 5.67504C-0.13546 6.18445 0.104552 6.77036 0.613966 6.98371L1.00026 6.06133L1.38655 5.13896ZM563.327 6.62369C563.638 6.16701 563.519 5.54502 563.063 5.23444L555.621 0.173204C555.164 -0.137378 554.542 -0.0189419 554.231 0.437738C553.921 0.894419 554.039 1.51641 554.496 1.82699L561.111 6.32586L556.612 12.941C556.302 13.3977 556.42 14.0197 556.877 14.3303C557.333 14.6408 557.955 14.5224 558.266 14.0657L563.327 6.62369ZM2.39724 7.71663C2.90941 7.92328 3.49212 7.67561 3.69877 7.16344C3.90542 6.65128 3.65775 6.06856 3.14559 5.86191L2.77141 6.78927L2.39724 7.71663ZM6.90271 7.32384C6.38571 7.1296 5.80914 7.39125 5.6149 7.90825C5.42066 8.42525 5.68231 9.00182 6.19931 9.19606L6.55101 8.25995L6.90271 7.32384ZM9.89904 10.5435C10.4198 10.7275 10.9911 10.4545 11.1751 9.93375C11.359 9.41301 11.086 8.84172 10.5653 8.65773L10.2322 9.60061L9.89904 10.5435ZM14.3901 9.97009C13.8662 9.7954 13.2999 10.0785 13.1252 10.6024C12.9505 11.1264 13.2336 11.6927 13.7575 11.8674L14.0738 10.9187L14.3901 9.97009ZM17.507 13.0853C18.0336 13.252 18.5955 12.9603 18.7622 12.4337C18.9289 11.9072 18.6372 11.3453 18.1106 11.1786L17.8088 12.1319L17.507 13.0853ZM21.9719 12.3705C21.443 12.2112 20.8852 12.5109 20.726 13.0397C20.5668 13.5685 20.8664 14.1263 21.3952 14.2855L21.6835 13.328L21.9719 12.3705ZM25.1767 15.3982C25.7075 15.5508 26.2615 15.2443 26.4142 14.7135C26.5668 14.1827 26.2603 13.6287 25.7295 13.4761L25.4531 14.4371L25.1767 15.3982ZM29.6461 14.577C29.1135 14.4306 28.5632 14.7437 28.4169 15.2763C28.2705 15.8088 28.5836 16.3591 29.1162 16.5055L29.3811 15.5412L29.6461 14.577ZM32.8983 17.5232C33.4324 17.6639 33.9794 17.3451 34.1201 16.811C34.2609 16.277 33.942 15.73 33.408 15.5892L33.1531 16.5562L32.8983 17.5232ZM37.3127 16.5968C36.7773 16.4615 36.2335 16.7859 36.0982 17.3214C35.9629 17.8568 36.2872 18.4006 36.8227 18.5359L37.0677 17.5664L37.3127 16.5968ZM40.6761 19.4905C41.2128 19.6208 41.7535 19.2914 41.8839 18.7547C42.0142 18.218 41.6848 17.6773 41.1481 17.547L40.9121 18.5187L40.6761 19.4905ZM45.0165 18.4681C44.4787 18.3426 43.9409 18.6767 43.8153 19.2145C43.6898 19.7524 44.0239 20.2902 44.5618 20.4157L44.7891 19.4419L45.0165 18.4681ZM48.52 21.3222C49.0588 21.4432 49.5938 21.1045 49.7148 20.5656C49.8358 20.0267 49.4971 19.4918 48.9582 19.3708L48.7391 20.3465L48.52 21.3222ZM52.783 20.2139C52.2432 20.0971 51.7109 20.44 51.5941 20.9798C51.4773 21.5196 51.8202 22.0519 52.36 22.1687L52.5715 21.1913L52.783 20.2139ZM56.3049 23.0064C56.8456 23.1191 57.3752 22.7721 57.4879 22.2314C57.6005 21.6908 57.2536 21.1611 56.7129 21.0484L56.5089 22.0274L56.3049 23.0064ZM60.626 21.849C60.0845 21.7402 59.5574 22.091 59.4487 22.6325C59.34 23.174 59.6908 23.7011 60.2322 23.8098L60.4291 22.8294L60.626 21.849ZM64.115 24.5756C64.6572 24.6806 65.1819 24.3261 65.2869 23.7839C65.3919 23.2417 65.0375 22.717 64.4953 22.612L64.3051 23.5938L64.115 24.5756ZM68.4562 23.3651C67.9133 23.2638 67.3911 23.6218 67.2897 24.1647C67.1884 24.7076 67.5464 25.2298 68.0893 25.3312L68.2728 24.3482L68.4562 23.3651ZM72.0136 26.0505C72.5572 26.1484 73.0771 25.787 73.175 25.2435C73.2728 24.6999 72.9115 24.18 72.3679 24.0822L72.1908 25.0663L72.0136 26.0505ZM76.2584 24.77C75.7142 24.6755 75.1965 25.04 75.102 25.5842C75.0075 26.1283 75.3721 26.646 75.9162 26.7405L76.0873 25.7552L76.2584 24.77ZM79.8992 27.4195C80.4439 27.5107 80.9594 27.143 81.0506 26.5983C81.1417 26.0536 80.7741 25.5381 80.2294 25.447L80.0643 26.4333L79.8992 27.4195ZM84.1663 26.094C83.6211 26.006 83.1078 26.3767 83.0198 26.9219C82.9318 27.4672 83.3025 27.9805 83.8477 28.0685L84.007 27.0813L84.1663 26.094ZM87.7539 28.6875C88.2997 28.7725 88.8109 28.3989 88.8958 27.8532C88.9807 27.3075 88.6072 26.7963 88.0615 26.7113L87.9077 27.6994L87.7539 28.6875ZM92.0281 27.3173C91.4819 27.2354 90.9727 27.6118 90.8908 28.158C90.8089 28.7041 91.1853 29.2133 91.7315 29.2952L91.8798 28.3063L92.0281 27.3173ZM95.7287 29.8835C96.2753 29.9624 96.7824 29.5833 96.8614 29.0367C96.9403 28.49 96.5612 27.9829 96.0146 27.904L95.8717 28.8937L95.7287 29.8835ZM99.9029 28.4553C99.3559 28.3792 98.8507 28.7609 98.7746 29.3079C98.6985 29.8549 99.0802 30.3601 99.6272 30.4362L99.7651 29.4457L99.9029 28.4553ZM103.589 30.9773C104.137 31.0506 104.64 30.6663 104.713 30.1189C104.787 29.5715 104.402 29.0683 103.855 28.995L103.722 29.9861L103.589 30.9773ZM107.871 29.5226C107.323 29.452 106.822 29.8389 106.751 30.3866C106.681 30.9344 107.067 31.4356 107.615 31.5062L107.743 30.5144L107.871 29.5226ZM111.54 32.0022C112.088 32.0701 112.587 31.6809 112.655 31.1328C112.723 30.5847 112.334 30.0853 111.786 30.0174L111.663 31.0098L111.54 32.0022ZM115.716 30.4951C115.168 30.4298 114.67 30.8214 114.605 31.3698C114.54 31.9182 114.931 32.4157 115.48 32.4811L115.598 31.4881L115.716 30.4951ZM119.477 32.9478C120.026 33.0106 120.521 32.6166 120.584 32.0679C120.647 31.5192 120.253 31.0235 119.704 30.9608L119.59 31.9543L119.477 32.9478ZM123.716 31.4103C123.167 31.3501 122.673 31.7463 122.613 32.2953C122.553 32.8442 122.949 33.3381 123.498 33.3984L123.607 32.4043L123.716 31.4103ZM127.411 33.819C127.96 33.8768 128.452 33.4784 128.51 32.9291C128.568 32.3799 128.169 31.8878 127.62 31.8299L127.515 32.8244L127.411 33.819ZM131.576 32.2376C131.026 32.1822 130.536 32.5827 130.481 33.1322C130.425 33.6817 130.826 34.1721 131.375 34.2275L131.476 33.2325L131.576 32.2376ZM135.391 34.6236C135.941 34.6766 136.43 34.274 136.483 33.7242C136.536 33.1745 136.133 32.6859 135.583 32.6329L135.487 33.6282L135.391 34.6236ZM139.575 33.0092C139.025 32.9585 138.538 33.3633 138.487 33.9132C138.437 34.4632 138.841 34.9501 139.391 35.0008L139.483 34.005L139.575 33.0092ZM143.321 35.3547C143.871 35.4032 144.356 34.9964 144.405 34.4463C144.453 33.8961 144.046 33.4109 143.496 33.3624L143.408 34.3586L143.321 35.3547ZM147.464 33.7035C146.914 33.6573 146.43 34.066 146.384 34.6164C146.338 35.1667 146.747 35.6503 147.297 35.6965L147.381 34.7L147.464 33.7035ZM151.32 36.0257C151.871 36.0697 152.353 35.659 152.396 35.1084C152.44 34.5579 152.03 34.076 151.479 34.0321L151.4 35.0289L151.32 36.0257ZM155.474 34.3428C154.923 34.3011 154.443 34.7137 154.401 35.2644C154.36 35.8151 154.772 36.2954 155.323 36.3371L155.399 35.34L155.474 34.3428ZM159.259 36.6277C159.81 36.6674 160.288 36.2529 160.328 35.702C160.367 35.1512 159.953 34.6725 159.402 34.6329L159.33 35.6303L159.259 36.6277ZM163.373 34.9107C162.822 34.8732 162.345 35.2895 162.307 35.8405C162.27 36.3916 162.686 36.8686 163.237 36.9061L163.305 35.9084L163.373 34.9107ZM167.258 37.172C167.809 37.2074 168.284 36.7893 168.32 36.2382C168.355 35.687 167.937 35.2115 167.386 35.1761L167.322 36.1741L167.258 37.172ZM171.406 35.4267C170.855 35.3934 170.381 35.8133 170.348 36.3645C170.315 36.9158 170.735 37.3897 171.286 37.423L171.346 36.4249L171.406 35.4267ZM175.22 37.6535C175.771 37.6848 176.243 37.2632 176.275 36.7118C176.306 36.1604 175.884 35.688 175.333 35.6567L175.276 36.6551L175.22 37.6535ZM179.298 35.8746C178.747 35.8453 178.276 36.2687 178.247 36.8202C178.217 37.3717 178.641 37.8425 179.192 37.8718L179.245 36.8732L179.298 35.8746ZM183.203 38.0777C183.755 38.105 184.224 37.68 184.252 37.1284C184.279 36.5768 183.854 36.1075 183.302 36.0801L183.253 37.0789L183.203 38.0777ZM187.345 36.273C186.794 36.2477 186.326 36.6744 186.301 37.2261C186.275 37.7778 186.702 38.2456 187.254 38.2709L187.3 37.272L187.345 36.273ZM191.202 38.4453C191.754 38.4688 192.221 38.0404 192.244 37.4886C192.267 36.9368 191.839 36.4706 191.287 36.4471L191.245 37.4462L191.202 38.4453ZM195.241 36.6081C194.69 36.5866 194.225 37.0165 194.203 37.5684C194.182 38.1203 194.612 38.5851 195.163 38.6066L195.202 37.6074L195.241 36.6081ZM199.16 38.7556C199.712 38.7752 200.175 38.3437 200.195 37.7918C200.215 37.2398 199.783 36.7765 199.231 36.7569L199.196 37.7562L199.16 38.7556ZM203.257 36.8931C202.705 36.8754 202.243 37.3085 202.225 37.8605C202.207 38.4125 202.64 38.8744 203.192 38.8921L203.224 37.8926L203.257 36.8931ZM207.209 39.0145C207.761 39.0304 208.222 38.5957 208.238 38.0436C208.253 37.4916 207.819 37.0312 207.267 37.0153L207.238 38.0149L207.209 39.0145ZM211.205 37.1222C210.653 37.1081 210.194 37.5443 210.18 38.0964C210.166 38.6485 210.602 39.1075 211.154 39.1215L211.18 38.1219L211.205 37.1222ZM215.132 39.2165C215.684 39.2288 216.142 38.7912 216.154 38.239C216.166 37.6869 215.728 37.2293 215.176 37.217L215.154 38.2168L215.132 39.2165ZM219.18 37.2996C218.628 37.2891 218.172 37.7283 218.161 38.2804C218.151 38.8326 218.59 39.2888 219.142 39.2993L219.161 38.2994L219.18 37.2996ZM223.185 39.3695C223.738 39.3782 224.192 38.9376 224.201 38.3854C224.21 37.8332 223.769 37.3785 223.217 37.3698L223.201 38.3697L223.185 39.3695ZM227.194 37.4262C226.642 37.4192 226.188 37.8612 226.181 38.4135C226.174 38.9657 226.616 39.419 227.169 39.426L227.181 38.4261L227.194 37.4262ZM231.124 39.4697C231.676 39.4749 232.128 39.0315 232.134 38.4792C232.139 37.927 231.695 37.475 231.143 37.4698L231.134 38.4697L231.124 39.4697ZM235.123 37.5014C234.57 37.4978 234.12 37.9427 234.116 38.4949C234.113 39.0472 234.558 39.4978 235.11 39.5013L235.116 38.5013L235.123 37.5014ZM239.126 39.5208C239.678 39.5226 240.127 39.0763 240.129 38.524C240.131 37.9718 239.685 37.5226 239.132 37.5208L239.129 38.5208L239.126 39.5208ZM243.172 37.5278C242.62 37.5277 242.172 37.9753 242.172 38.5276C242.172 39.0799 242.62 39.5277 243.172 39.5278L243.172 38.5278L243.172 37.5278ZM247.143 39.5227C247.696 39.5211 248.142 39.0722 248.14 38.5199C248.139 37.9676 247.69 37.5211 247.138 37.5227L247.14 38.5227L247.143 39.5227ZM251.091 37.5058C250.538 37.5089 250.093 37.9592 250.096 38.5115C250.099 39.0638 250.55 39.5089 251.102 39.5057L251.096 38.5057L251.091 37.5058ZM255.089 39.4768C255.641 39.472 256.085 39.0204 256.08 38.4681C256.075 37.9159 255.624 37.4721 255.071 37.4769L255.08 38.4769L255.089 39.4768ZM259.08 37.436C258.528 37.4424 258.086 37.8954 258.092 38.4476C258.099 38.9999 258.551 39.4423 259.104 39.4359L259.092 38.4359L259.08 37.436ZM263.146 39.3827C263.699 39.3746 264.14 38.9204 264.132 38.3681C264.124 37.8159 263.669 37.3748 263.117 37.3829L263.132 38.3828L263.146 39.3827ZM267.091 37.319C266.539 37.3287 266.099 37.7842 266.108 38.3364C266.118 38.8886 266.574 39.3284 267.126 39.3187L267.108 38.3189L267.091 37.319ZM271.082 39.2438C271.634 39.2326 272.073 38.7758 272.061 38.2236C272.05 37.6715 271.593 37.233 271.041 37.2442L271.062 38.244L271.082 39.2438ZM275.018 37.1576C274.466 37.1704 274.028 37.6284 274.041 38.1805C274.054 38.7327 274.512 39.1699 275.064 39.1571L275.041 38.1574L275.018 37.1576ZM279.072 39.0585C279.624 39.0441 280.06 38.5849 280.046 38.0328C280.032 37.4807 279.572 37.0448 279.02 37.0591L279.046 38.0588L279.072 39.0585ZM283.049 36.9486C282.497 36.9645 282.062 37.425 282.078 37.977C282.094 38.5291 282.554 38.9637 283.106 38.9478L283.077 37.9482L283.049 36.9486ZM287.113 38.8266C287.665 38.8092 288.098 38.3475 288.08 37.7955C288.063 37.2435 287.601 36.8102 287.049 36.8276L287.081 37.8271L287.113 38.8266ZM290.993 36.6975C290.441 36.7165 290.009 37.1793 290.028 37.7313C290.046 38.2832 290.509 38.7153 291.061 38.6963L291.027 37.6969L290.993 36.6975ZM295.034 38.5544C295.586 38.5339 296.017 38.0699 295.996 37.518C295.976 36.9661 295.512 36.5353 294.96 36.5558L294.997 37.5551L295.034 38.5544ZM298.951 36.4023C298.4 36.4243 297.97 36.8894 297.992 37.4413C298.014 37.9931 298.479 38.4227 299.031 38.4007L298.991 37.4015L298.951 36.4023ZM303.052 38.2352C303.604 38.2117 304.032 37.7454 304.009 37.1936C303.985 36.6418 303.519 36.2136 302.967 36.237L303.01 37.2361L303.052 38.2352ZM307.007 36.0598C306.455 36.0847 306.028 36.5522 306.053 37.1039C306.078 37.6556 306.545 38.0827 307.097 38.0577L307.052 37.0587L307.007 36.0598ZM311.04 37.8742C311.591 37.8478 312.017 37.3792 311.991 36.8275C311.964 36.2759 311.496 35.8501 310.944 35.8765L310.992 36.8753L311.04 37.8742ZM314.898 35.682C314.347 35.7099 313.922 36.1796 313.95 36.7312C313.978 37.2828 314.448 37.7073 314.999 37.6795L314.949 36.6808L314.898 35.682ZM318.981 37.4733C319.533 37.444 319.956 36.9732 319.927 36.4216C319.897 35.8701 319.427 35.4468 318.875 35.4761L318.928 36.4747L318.981 37.4733ZM322.874 35.2585C322.323 35.2892 321.901 35.7611 321.932 36.3126C321.962 36.864 322.434 37.2861 322.986 37.2554L322.93 36.2569L322.874 35.2585ZM327.013 37.0258C327.564 36.9936 327.985 36.5206 327.953 35.9692C327.92 35.4179 327.447 34.997 326.896 35.0292L326.954 36.0275L327.013 37.0258ZM330.897 34.7907C330.345 34.8242 329.926 35.2983 329.959 35.8496C329.993 36.4009 330.467 36.8205 331.018 36.787L330.957 35.7888L330.897 34.7907ZM334.961 36.5418C335.513 36.5068 335.931 36.0317 335.896 35.4805C335.861 34.9293 335.386 34.5109 334.835 34.5458L334.898 35.5438L334.961 36.5418ZM338.794 34.2897C338.243 34.326 337.826 34.8022 337.862 35.3533C337.898 35.9044 338.374 36.3217 338.926 36.2853L338.86 35.2875L338.794 34.2897ZM342.911 36.0175C343.462 35.9797 343.878 35.5025 343.84 34.9515C343.802 34.4005 343.325 33.9844 342.774 34.0221L342.842 35.0198L342.911 36.0175ZM346.775 33.7431C346.224 33.7822 345.809 34.2605 345.848 34.8114C345.887 35.3623 346.366 35.7772 346.917 35.7381L346.846 34.7406L346.775 33.7431ZM350.944 35.4471C351.494 35.4066 351.908 34.9272 351.868 34.3764C351.827 33.8256 351.348 33.412 350.797 33.4525L350.87 34.4498L350.944 35.4471ZM354.773 33.1552C354.222 33.1971 353.809 33.6775 353.851 34.2281C353.893 34.7788 354.373 35.1913 354.924 35.1495L354.848 34.1524L354.773 33.1552ZM358.868 34.845C359.418 34.8018 359.83 34.3204 359.787 33.7698C359.743 33.2193 359.262 32.8079 358.711 32.8511L358.79 33.848L358.868 34.845ZM362.67 32.5358C362.119 32.5803 361.709 33.0627 361.754 33.6132C361.798 34.1636 362.281 34.5738 362.831 34.5293L362.751 33.5325L362.67 32.5358ZM366.814 34.2023C367.364 34.1565 367.773 33.6732 367.728 33.1228C367.682 32.5724 367.198 32.1634 366.648 32.2092L366.731 33.2058L366.814 34.2023ZM370.646 31.8714C370.095 31.9185 369.688 32.4029 369.735 32.9531C369.782 33.5034 370.266 33.9112 370.816 33.864L370.731 32.8677L370.646 31.8714ZM374.838 33.5143C375.389 33.4658 375.795 32.9805 375.747 32.4303C375.698 31.8802 375.213 31.4735 374.663 31.522L374.751 32.5182L374.838 33.5143ZM378.632 31.1673C378.082 31.2171 377.676 31.7034 377.726 32.2534C377.776 32.8035 378.262 33.209 378.812 33.1592L378.722 32.1632L378.632 31.1673ZM382.752 32.7977C383.302 32.7466 383.706 32.2594 383.655 31.7095C383.604 31.1596 383.117 30.7552 382.567 30.8063L382.66 31.802L382.752 32.7977ZM386.52 30.4343C385.97 30.4867 385.567 30.9749 385.62 31.5247C385.672 32.0745 386.16 32.4777 386.71 32.4253L386.615 31.4298L386.52 30.4343ZM390.686 32.0418C391.236 31.9881 391.638 31.499 391.584 30.9493C391.531 30.3997 391.042 29.9976 390.492 30.0512L390.589 31.0465L390.686 32.0418ZM394.482 29.657C393.932 29.712 393.531 30.202 393.586 30.7515C393.641 31.3011 394.131 31.702 394.681 31.6471L394.581 30.652L394.482 29.657ZM398.694 31.2411C399.243 31.1849 399.643 30.6939 399.587 30.1445C399.53 29.5951 399.039 29.1953 398.49 29.2515L398.592 30.2463L398.694 31.2411ZM402.47 28.8396C401.921 28.8971 401.522 29.3889 401.58 29.9382C401.637 30.4875 402.129 30.8862 402.678 30.8287L402.574 29.8341L402.47 28.8396ZM406.61 30.4127C407.159 30.354 407.557 29.8612 407.498 29.3121C407.439 28.7629 406.946 28.3653 406.397 28.4241L406.504 29.4184L406.61 30.4127ZM410.341 27.9978C409.792 28.0577 409.396 28.5514 409.456 29.1004C409.516 29.6494 410.01 30.0459 410.559 29.9859L410.45 28.9918L410.341 27.9978ZM414.524 29.5482C415.073 29.487 415.469 28.9924 415.407 28.4436C415.346 27.8947 414.852 27.4993 414.303 27.5605L414.414 28.5544L414.524 29.5482ZM418.281 27.1124C417.733 27.1748 417.338 27.6703 417.401 28.219C417.463 28.7677 417.959 29.162 418.508 29.0995L418.394 28.1059L418.281 27.1124ZM422.508 28.6398C423.056 28.5761 423.449 28.0798 423.386 27.5312C423.322 26.9826 422.826 26.5894 422.277 26.6531L422.392 27.6464L422.508 28.6398ZM426.285 26.1834C425.736 26.2483 425.344 26.7455 425.409 27.294C425.474 27.8424 425.971 28.2344 426.52 28.1695L426.402 27.1765L426.285 26.1834ZM430.44 27.7013C430.988 27.6352 431.379 27.1371 431.313 26.5888C431.247 26.0405 430.749 25.6495 430.2 25.7157L430.32 26.7085L430.44 27.7013ZM434.132 25.2373C433.584 25.3046 433.194 25.8035 433.262 26.3517C433.329 26.8999 433.828 27.2897 434.376 27.2224L434.254 26.2298L434.132 25.2373ZM438.328 26.7328C438.876 26.6643 439.265 26.1645 439.196 25.6165C439.128 25.0685 438.628 24.6797 438.08 24.7482L438.204 25.7405L438.328 26.7328ZM442.044 24.2484C441.496 24.3181 441.109 24.8187 441.178 25.3666C441.248 25.9144 441.749 26.3021 442.297 26.2324L442.17 25.2404L442.044 24.2484ZM446.281 25.7212C446.829 25.6503 447.215 25.1488 447.144 24.6011C447.074 24.0534 446.572 23.6668 446.024 23.7377L446.153 24.7294L446.281 25.7212ZM450.021 23.2161C449.473 23.2882 449.088 23.7905 449.16 24.3381C449.232 24.8856 449.734 25.2711 450.282 25.199L450.151 24.2076L450.021 23.2161ZM454.241 24.6735C454.789 24.6003 455.173 24.0971 455.1 23.5497C455.027 23.0023 454.524 22.6179 453.976 22.6912L454.109 23.6823L454.241 24.6735ZM457.893 22.1629C457.346 22.2373 456.962 22.7413 457.037 23.2885C457.111 23.8358 457.615 24.2191 458.162 24.1447L458.028 23.1538L457.893 22.1629ZM462.098 23.6054C462.645 23.5298 463.027 23.0251 462.952 22.478C462.876 21.9309 462.372 21.5486 461.825 21.6242L461.961 22.6148L462.098 23.6054ZM465.771 21.0749C465.224 21.1516 464.843 21.6571 464.92 22.2041C464.997 22.751 465.502 23.1322 466.049 23.0555L465.91 22.0652L465.771 21.0749ZM470.015 22.495C470.562 22.4171 470.942 21.9108 470.864 21.364C470.787 20.8172 470.28 20.4371 469.733 20.515L469.874 21.505L470.015 22.495ZM473.711 19.9444C473.164 20.0234 472.785 20.5305 472.864 21.0771C472.943 21.6237 473.45 22.0028 473.997 21.9238L473.854 20.9341L473.711 19.9444ZM477.993 21.3418C478.54 21.2617 478.918 20.7537 478.838 20.2073C478.757 19.6608 478.249 19.2829 477.703 19.363L477.848 20.3524L477.993 21.3418ZM481.625 18.7836C481.078 18.8649 480.701 19.3736 480.783 19.9199C480.864 20.4662 481.373 20.8431 481.919 20.7618L481.772 19.7727L481.625 18.7836ZM485.836 20.1749C486.382 20.0925 486.758 19.583 486.676 19.0369C486.593 18.4908 486.084 18.1149 485.538 18.1973L485.687 19.1861L485.836 20.1749ZM489.465 17.6006C488.919 17.6841 488.544 18.1944 488.628 18.7403C488.711 19.2863 489.222 19.6611 489.768 19.5776L489.616 18.5891L489.465 17.6006ZM493.713 18.9699C494.259 18.8853 494.633 18.3743 494.548 17.8285C494.464 17.2827 493.953 16.9089 493.407 16.9935L493.56 17.9817L493.713 18.9699ZM497.363 16.376C496.817 16.4617 496.444 16.9735 496.53 17.5191C496.616 18.0647 497.128 18.4375 497.673 18.3518L497.518 17.3639L497.363 16.376ZM501.648 17.7231C502.193 17.6362 502.565 17.1237 502.478 16.5783C502.391 16.0328 501.878 15.6611 501.333 15.748L501.49 16.7355L501.648 17.7231ZM505.318 15.1093C504.772 15.1973 504.402 15.7106 504.49 16.2558C504.578 16.8011 505.091 17.1718 505.636 17.0838L505.477 16.0966L505.318 15.1093ZM509.545 16.4492C510.09 16.3602 510.46 15.8461 510.371 15.3011C510.282 14.756 509.768 14.3863 509.223 14.4754L509.384 15.4623L509.545 16.4492ZM513.129 13.8333C512.584 13.9234 512.215 14.4382 512.305 14.9831C512.395 15.528 512.91 15.8966 513.455 15.8065L513.292 14.8199L513.129 13.8333ZM517.378 15.1536C517.923 15.0624 518.291 14.5469 518.199 14.0022C518.108 13.4575 517.593 13.0899 517.048 13.1811L517.213 14.1674L517.378 15.1536ZM520.981 12.5186C520.437 12.6109 520.07 13.1271 520.162 13.6716C520.254 14.2161 520.771 14.5828 521.315 14.4905L521.148 13.5045L520.981 12.5186ZM525.265 13.8171C525.81 13.7237 526.175 13.2068 526.082 12.6624C525.989 12.1181 525.472 11.7525 524.927 11.8458L525.096 12.8315L525.265 13.8171ZM528.887 11.1628C528.343 11.2572 527.978 11.7748 528.073 12.319C528.167 12.8631 528.685 13.2277 529.229 13.1333L529.058 12.148L528.887 11.1628ZM533.206 12.4391C533.75 12.3436 534.114 11.8252 534.018 11.2813C533.923 10.7373 533.404 10.3738 532.86 10.4693L533.033 11.4542L533.206 12.4391ZM536.766 9.77982C536.222 9.87636 535.859 10.3955 535.956 10.9392C536.052 11.483 536.571 11.8456 537.115 11.749L536.94 10.7644L536.766 9.77982ZM541.015 11.0528C541.558 10.9552 541.92 10.4355 541.822 9.89187C541.725 9.34828 541.205 8.98672 540.661 9.08431L540.838 10.0686L541.015 11.0528ZM544.57 8.37879C544.026 8.47742 543.666 8.99789 543.764 9.5413C543.863 10.0847 544.383 10.4453 544.927 10.3466L544.748 9.36271L544.57 8.37879ZM548.851 9.63038C549.395 9.5307 549.754 9.00954 549.655 8.46632C549.555 7.92311 549.034 7.56354 548.491 7.66322L548.671 8.6468L548.851 9.63038ZM552.424 6.93754C551.881 7.03826 551.523 7.56011 551.623 8.10313C551.724 8.64616 552.246 9.00472 552.789 8.90401L552.607 7.92078L552.424 6.93754ZM556.739 8.16749C557.282 8.06573 557.639 7.5432 557.538 7.00037C557.436 6.45754 556.913 6.09997 556.371 6.20172L556.555 7.1846L556.739 8.16749ZM560.33 5.4557C559.787 5.55849 559.43 6.0817 559.533 6.62434C559.636 7.16698 560.159 7.52354 560.702 7.42075L560.516 6.43822L560.33 5.4557ZM1.00026 6.06133L0.613966 6.98371C1.19529 7.22717 1.78973 7.47151 2.39724 7.71663L2.77141 6.78927L3.14559 5.86191C2.54594 5.61996 1.95959 5.37894 1.38655 5.13896L1.00026 6.06133ZM6.55101 8.25995L6.19931 9.19606C7.39001 9.64342 8.6233 10.0927 9.89904 10.5435L10.2322 9.60061L10.5653 8.65773C9.30146 8.21119 8.08056 7.76636 6.90271 7.32384L6.55101 8.25995ZM14.0738 10.9187L13.7575 11.8674C14.9734 12.2728 16.2233 12.6789 17.507 13.0853L17.8088 12.1319L18.1106 11.1786C16.8363 10.7751 15.5961 10.3722 14.3901 9.97009L14.0738 10.9187ZM21.6835 13.328L21.3952 14.2855C22.6276 14.6566 23.8881 15.0276 25.1767 15.3982L25.4531 14.4371L25.7295 13.4761C24.4486 13.1077 23.1961 12.7391 21.9719 12.3705L21.6835 13.328ZM29.3811 15.5412L29.1162 16.5055C30.3531 16.8454 31.6139 17.1847 32.8983 17.5232L33.1531 16.5562L33.408 15.5892C32.1302 15.2525 30.8762 14.915 29.6461 14.577L29.3811 15.5412ZM37.0677 17.5664L36.8227 18.5359C38.0859 18.8551 39.3704 19.1734 40.6761 19.4905L40.9121 18.5187L41.1481 17.547C39.8483 17.2313 38.5698 16.9145 37.3127 16.5968L37.0677 17.5664ZM44.7891 19.4419L44.5618 20.4157C45.8614 20.7192 47.1808 21.0214 48.52 21.3222L48.7391 20.3465L48.9582 19.3708C47.6245 19.0713 46.3106 18.7703 45.0165 18.4681L44.7891 19.4419ZM52.5715 21.1913L52.36 22.1687C53.6575 22.4494 54.9725 22.7287 56.3049 23.0064L56.5089 22.0274L56.7129 21.0484C55.3854 20.7718 54.0754 20.4936 52.783 20.2139L52.5715 21.1913ZM60.4291 22.8294L60.2322 23.8098C61.5112 24.0667 62.8055 24.3219 64.115 24.5756L64.3051 23.5938L64.4953 22.612C63.1902 22.3593 61.9005 22.1049 60.626 21.849L60.4291 22.8294ZM68.2728 24.3482L68.0893 25.3312C69.3832 25.5727 70.6913 25.8125 72.0136 26.0505L72.1908 25.0663L72.3679 24.0822C71.0498 23.8449 69.7459 23.6059 68.4562 23.3651L68.2728 24.3482ZM76.0873 25.7552L75.9162 26.7405C77.2305 26.9687 78.5582 27.1951 79.8992 27.4195L80.0643 26.4333L80.2294 25.447C78.8923 25.2232 77.5686 24.9975 76.2584 24.77L76.0873 25.7552ZM84.007 27.0813L83.8477 28.0685C85.1379 28.2767 86.44 28.4831 87.7539 28.6875L87.9077 27.6994L88.0615 26.7113C86.7512 26.5074 85.4528 26.3016 84.1663 26.094L84.007 27.0813ZM91.8798 28.3063L91.7315 29.2952C93.0523 29.4933 94.3848 29.6894 95.7287 29.8835L95.8717 28.8937L96.0146 27.904C94.6742 27.7104 93.3453 27.5148 92.0281 27.3173L91.8798 28.3063ZM99.7651 29.4457L99.6272 30.4362C100.937 30.6185 102.258 30.7989 103.589 30.9773L103.722 29.9861L103.855 28.995C102.527 28.8171 101.21 28.6371 99.9029 28.4553L99.7651 29.4457ZM107.743 30.5144L107.615 31.5062C108.914 31.6735 110.222 31.8389 111.54 32.0022L111.663 31.0098L111.786 30.0174C110.471 29.8544 109.166 29.6895 107.871 29.5226L107.743 30.5144ZM115.598 31.4881L115.48 32.4811C116.803 32.6387 118.135 32.7943 119.477 32.9478L119.59 31.9543L119.704 30.9608C118.365 30.8076 117.036 30.6524 115.716 30.4951L115.598 31.4881ZM123.607 32.4043L123.498 33.3984C124.794 33.5405 126.098 33.6807 127.411 33.819L127.515 32.8244L127.62 31.8299C126.31 31.692 125.009 31.5521 123.716 31.4103L123.607 32.4043ZM131.476 33.2325L131.375 34.2275C132.705 34.3616 134.044 34.4937 135.391 34.6236L135.487 33.6282L135.583 32.6329C134.239 32.5032 132.903 32.3714 131.576 32.2376L131.476 33.2325ZM139.483 34.005L139.391 35.0008C140.693 35.1208 142.003 35.2388 143.321 35.3547L143.408 34.3586L143.496 33.3624C142.181 33.2467 140.874 33.129 139.575 33.0092L139.483 34.005ZM147.381 34.7L147.297 35.6965C148.63 35.8083 149.971 35.9181 151.32 36.0257L151.4 35.0289L151.479 34.0321C150.133 33.9246 148.795 33.8151 147.464 33.7035L147.381 34.7ZM155.399 35.34L155.323 36.3371C156.628 36.436 157.94 36.5329 159.259 36.6277L159.33 35.6303L159.402 34.6329C158.086 34.5382 156.776 34.4415 155.474 34.3428L155.399 35.34ZM163.305 35.9084L163.237 36.9061C164.57 36.9969 165.91 37.0855 167.258 37.172L167.322 36.1741L167.386 35.1761C166.041 35.0898 164.703 35.0013 163.373 34.9107L163.305 35.9084ZM171.346 36.4249L171.286 37.423C172.591 37.5019 173.902 37.5787 175.22 37.6535L175.276 36.6551L175.333 35.6567C174.018 35.5821 172.709 35.5054 171.406 35.4267L171.346 36.4249ZM179.245 36.8732L179.192 37.8718C180.523 37.9425 181.86 38.0112 183.203 38.0777L183.253 37.0789L183.302 36.0801C181.961 36.0137 180.626 35.9452 179.298 35.8746L179.245 36.8732ZM187.3 37.272L187.254 38.2709C188.564 38.3311 189.88 38.3892 191.202 38.4453L191.245 37.4462L191.287 36.4471C189.967 36.3911 188.653 36.3331 187.345 36.273L187.3 37.272ZM195.202 37.6074L195.163 38.6066C196.49 38.6583 197.822 38.708 199.16 38.7556L199.196 37.7562L199.231 36.7569C197.895 36.7093 196.565 36.6598 195.241 36.6081L195.202 37.6074ZM203.224 37.8926L203.192 38.8921C204.526 38.935 205.864 38.9758 207.209 39.0145L207.238 38.0149L207.267 37.0153C205.924 36.9767 204.588 36.9359 203.257 36.8931L203.224 37.8926ZM211.18 38.1219L211.154 39.1215C212.475 39.1552 213.8 39.1869 215.132 39.2165L215.154 38.2168L215.176 37.217C213.847 37.1875 212.523 37.1558 211.205 37.1222L211.18 38.1219ZM219.161 38.2994L219.142 39.2993C220.485 39.3248 221.832 39.3482 223.185 39.3695L223.201 38.3697L223.217 37.3698C221.866 37.3485 220.52 37.3251 219.18 37.2996L219.161 38.2994ZM227.181 38.4261L227.169 39.426C228.482 39.4425 229.801 39.4571 231.124 39.4697L231.134 38.4697L231.143 37.4698C229.822 37.4572 228.505 37.4427 227.194 37.4262L227.181 38.4261ZM235.116 38.5013L235.11 39.5013C236.444 39.5098 237.782 39.5163 239.126 39.5208L239.129 38.5208L239.132 37.5208C237.791 37.5163 236.454 37.5099 235.123 37.5014L235.116 38.5013ZM243.172 38.5278L243.172 39.5278C244.491 39.5281 245.815 39.5264 247.143 39.5227L247.14 38.5227L247.138 37.5227C245.811 37.5264 244.489 37.5281 243.172 37.5278L243.172 38.5278ZM251.096 38.5057L251.102 39.5057C252.426 39.4981 253.755 39.4885 255.089 39.4768L255.08 38.4769L255.071 37.4769C253.74 37.4885 252.413 37.4981 251.091 37.5058L251.096 38.5057ZM259.092 38.4359L259.104 39.4359C260.447 39.4202 261.794 39.4024 263.146 39.3827L263.132 38.3828L263.117 37.3829C261.767 37.4026 260.421 37.4203 259.08 37.436L259.092 38.4359ZM267.108 38.3189L267.126 39.3187C268.44 39.2957 269.759 39.2707 271.082 39.2438L271.062 38.244L271.041 37.2442C269.72 37.2711 268.403 37.296 267.091 37.319L267.108 38.3189ZM275.041 38.1574L275.064 39.1571C276.396 39.1262 277.732 39.0933 279.072 39.0585L279.046 38.0588L279.02 37.0591C277.682 37.094 276.348 37.1268 275.018 37.1576L275.041 38.1574ZM283.077 37.9482L283.106 38.9478C284.438 38.9094 285.773 38.869 287.113 38.8266L287.081 37.8271L287.049 36.8276C285.712 36.8699 284.378 36.9103 283.049 36.9486L283.077 37.9482ZM291.027 37.6969L291.061 38.6963C292.382 38.651 293.706 38.6037 295.034 38.5544L294.997 37.5551L294.96 36.5558C293.633 36.605 292.311 36.6522 290.993 36.6975L291.027 37.6969ZM298.991 37.4015L299.031 38.4007C300.367 38.3475 301.708 38.2924 303.052 38.2352L303.01 37.2361L302.967 36.237C301.624 36.2941 300.286 36.3492 298.951 36.4023L298.991 37.4015ZM307.052 37.0587L307.097 38.0577C308.407 37.9984 309.722 37.9373 311.04 37.8742L310.992 36.8753L310.944 35.8765C309.628 35.9395 308.315 36.0006 307.007 36.0598L307.052 37.0587ZM314.949 36.6808L314.999 37.6795C316.323 37.6127 317.65 37.5439 318.981 37.4733L318.928 36.4747L318.875 35.4761C317.546 35.5467 316.22 35.6153 314.898 35.682L314.949 36.6808ZM322.93 36.2569L322.986 37.2554C324.324 37.1808 325.667 37.1043 327.013 37.0258L326.954 36.0275L326.896 35.0292C325.552 35.1076 324.211 35.184 322.874 35.2585L322.93 36.2569ZM330.957 35.7888L331.018 36.787C332.329 36.7071 333.644 36.6254 334.961 36.5418L334.898 35.5438L334.835 34.5458C333.519 34.6293 332.206 34.7109 330.897 34.7907L330.957 35.7888ZM338.86 35.2875L338.926 36.2853C340.25 36.198 341.579 36.1087 342.911 36.0175L342.842 35.0198L342.774 34.0221C341.444 34.1132 340.117 34.2024 338.794 34.2897L338.86 35.2875ZM346.846 34.7406L346.917 35.7381C348.255 35.643 349.598 35.546 350.944 35.4471L350.87 34.4498L350.797 33.4525C349.453 33.5513 348.112 33.6481 346.775 33.7431L346.846 34.7406ZM354.848 34.1524L354.924 35.1495C356.235 35.0498 357.55 34.9483 358.868 34.845L358.79 33.848L358.711 32.8511C357.395 32.9543 356.082 33.0557 354.773 33.1552L354.848 34.1524ZM362.751 33.5325L362.831 34.5293C364.156 34.4222 365.483 34.3132 366.814 34.2023L366.731 33.2058L366.648 32.2092C365.319 32.32 363.993 32.4288 362.67 32.5358L362.751 33.5325ZM370.731 32.8677L370.816 33.864C372.154 33.7494 373.495 33.6328 374.838 33.5143L374.751 32.5182L374.663 31.522C373.321 31.6404 371.981 31.7568 370.646 31.8714L370.731 32.8677ZM378.722 32.1632L378.812 33.1592C380.123 33.0405 381.436 32.92 382.752 32.7977L382.66 31.802L382.567 30.8063C381.252 30.9285 379.941 31.0488 378.632 31.1673L378.722 32.1632ZM386.615 31.4298L386.71 32.4253C388.032 32.2993 389.358 32.1715 390.686 32.0418L390.589 31.0465L390.492 30.0512C389.165 30.1808 387.841 30.3085 386.52 30.4343L386.615 31.4298ZM394.581 30.652L394.681 31.6471C396.015 31.5136 397.353 31.3783 398.694 31.2411L398.592 30.2463L398.49 29.2515C397.151 29.3886 395.815 29.5237 394.482 29.657L394.581 30.652ZM402.574 29.8341L402.678 30.8287C403.986 30.6918 405.297 30.5532 406.61 30.4127L406.504 29.4184L406.397 28.4241C405.085 28.5644 403.776 28.7029 402.47 28.8396L402.574 29.8341ZM410.45 28.9918L410.559 29.9859C411.878 29.8418 413.2 29.6959 414.524 29.5482L414.414 28.5544L414.303 27.5605C412.98 27.7081 411.659 27.8538 410.341 27.9978L410.45 28.9918ZM418.394 28.1059L418.508 29.0995C419.838 28.9481 421.171 28.7949 422.508 28.6398L422.392 27.6464L422.277 26.6531C420.942 26.808 419.61 26.9611 418.281 27.1124L418.394 28.1059ZM426.402 27.1765L426.52 28.1695C427.824 28.0152 429.13 27.8591 430.44 27.7013L430.32 26.7085L430.2 25.7157C428.893 25.8733 427.587 26.0292 426.285 26.1834L426.402 27.1765ZM434.254 26.2298L434.376 27.2224C435.691 27.061 437.008 26.8978 438.328 26.7328L438.204 25.7405L438.08 24.7482C436.761 24.913 435.446 25.076 434.132 25.2373L434.254 26.2298ZM442.17 25.2404L442.297 26.2324C443.622 26.0638 444.95 25.8934 446.281 25.7212L446.153 24.7294L446.024 23.7377C444.695 23.9097 443.368 24.08 442.044 24.2484L442.17 25.2404ZM450.151 24.2076L450.282 25.199C451.599 25.0256 452.919 24.8505 454.241 24.6735L454.109 23.6823L453.976 22.6912C452.655 22.8679 451.337 23.0429 450.021 23.2161L450.151 24.2076ZM458.028 23.1538L458.162 24.1447C459.472 23.9667 460.784 23.7869 462.098 23.6054L461.961 22.6148L461.825 21.6242C460.511 21.8055 459.201 21.9851 457.893 22.1629L458.028 23.1538ZM465.91 22.0652L466.049 23.0555C467.369 22.8704 468.691 22.6836 470.015 22.495L469.874 21.505L469.733 20.515C468.41 20.7034 467.09 20.89 465.771 21.0749L465.91 22.0652ZM473.854 20.9341L473.997 21.9238C475.326 21.7316 476.659 21.5376 477.993 21.3418L477.848 20.3524L477.703 19.363C476.37 19.5586 475.039 19.7524 473.711 19.9444L473.854 20.9341ZM481.772 19.7727L481.919 20.7618C483.222 20.5679 484.528 20.3723 485.836 20.1749L485.687 19.1861L485.538 18.1973C484.231 18.3945 482.927 18.5899 481.625 18.7836L481.772 19.7727ZM489.616 18.5891L489.768 19.5776C491.08 19.3768 492.396 19.1742 493.713 18.9699L493.56 17.9817L493.407 16.9935C492.091 17.1976 490.777 17.4 489.465 17.6006L489.616 18.5891ZM497.518 17.3639L497.673 18.3518C498.996 18.144 500.32 17.9344 501.648 17.7231L501.49 16.7355L501.333 15.748C500.007 15.9591 498.684 16.1684 497.363 16.376L497.518 17.3639ZM505.477 16.0966L505.636 17.0838C506.937 16.874 508.24 16.6624 509.545 16.4492L509.384 15.4623L509.223 14.4754C507.919 14.6884 506.617 14.8997 505.318 15.1093L505.477 16.0966ZM513.292 14.8199L513.455 15.8065C514.761 15.5906 516.068 15.373 517.378 15.1536L517.213 14.1674L517.048 13.1811C515.739 13.4002 514.433 13.6176 513.129 13.8333L513.292 14.8199ZM521.148 13.5045L521.315 14.4905C522.63 14.2677 523.946 14.0433 525.265 13.8171L525.096 12.8315L524.927 11.8458C523.61 12.0718 522.294 12.2961 520.981 12.5186L521.148 13.5045ZM529.058 12.148L529.229 13.1333C530.553 12.9036 531.878 12.6723 533.206 12.4391L533.033 11.4542L532.86 10.4693C531.534 10.7022 530.209 10.9333 528.887 11.1628L529.058 12.148ZM536.94 10.7644L537.115 11.749C538.413 11.5186 539.713 11.2866 541.015 11.0528L540.838 10.0686L540.661 9.08431C539.36 9.31781 538.062 9.54964 536.766 9.77982L536.94 10.7644ZM544.748 9.36271L544.927 10.3466C546.233 10.1096 547.541 9.87081 548.851 9.63038L548.671 8.6468L548.491 7.66322C547.181 7.90342 545.874 8.14194 544.57 8.37879L544.748 9.36271ZM552.607 7.92078L552.789 8.90401C554.104 8.6602 555.42 8.41469 556.739 8.16749L556.555 7.1846L556.371 6.20172C555.053 6.44869 553.738 6.69397 552.424 6.93754L552.607 7.92078ZM560.516 6.43822L560.702 7.42075C561.363 7.29549 562.025 7.1698 562.687 7.04368L562.5 6.06133L562.313 5.07898C561.652 5.20498 560.99 5.33055 560.33 5.4557L560.516 6.43822Z" fill="var(--stroke-0, #003DFF)"/>
</svg>
