<svg preserveAspectRatio="none" width="100%" height="100%" overflow="visible" style="display: block;" viewBox="0 0 393.466 319.969" fill="none" xmlns="http://www.w3.org/2000/svg">
<path id="Vector 2" d="M0.148015 313.735C-0.141016 314.206 0.00618845 314.822 0.476805 315.111L8.14594 319.821C8.61656 320.11 9.23237 319.963 9.5214 319.492C9.81043 319.022 9.66323 318.406 9.19261 318.117L2.3756 313.93L6.5623 307.113C6.85133 306.642 6.70412 306.027 6.23351 305.738C5.76289 305.449 5.14707 305.596 4.85804 306.066L0.148015 313.735ZM1.00014 314.259L1.23263 315.231C1.85462 315.083 2.48051 314.932 3.11027 314.778L2.87361 313.807L2.63696 312.835C2.00996 312.988 1.38684 313.138 0.767652 313.286L1.00014 314.259ZM6.68986 312.86L6.93465 313.83C8.22459 313.504 9.52952 313.169 10.849 312.824L10.5963 311.857L10.3436 310.889C9.02933 311.232 7.72967 311.566 6.44507 311.891L6.68986 312.86ZM14.3982 310.848L14.6582 311.814C15.9188 311.474 17.1918 311.127 18.4769 310.77L18.2098 309.807L17.9427 308.843C16.6623 309.198 15.394 309.544 14.1382 309.883L14.3982 310.848ZM22.0937 308.715L22.3677 309.677C23.6172 309.321 24.8774 308.957 26.148 308.586L25.8675 307.626L25.587 306.666C24.3208 307.036 23.0649 307.399 21.8197 307.754L22.0937 308.715ZM29.6574 306.505L29.9442 307.463C31.2194 307.081 32.5045 306.692 33.799 306.296L33.506 305.339L33.213 304.383C31.9226 304.779 30.6417 305.167 29.3706 305.547L29.6574 306.505ZM37.2779 304.171L37.5769 305.125C38.8237 304.734 40.0788 304.337 41.3419 303.933L41.0371 302.98L40.7323 302.028C39.4731 302.431 38.2219 302.827 36.979 303.216L37.2779 304.171ZM44.8445 301.749L45.155 302.7C46.4116 302.289 47.6757 301.872 48.947 301.449L48.6309 300.5L48.3147 299.551C47.0471 299.974 45.7868 300.389 44.534 300.799L44.8445 301.749ZM52.355 299.247L52.6765 300.194C53.9264 299.77 55.1829 299.339 56.4458 298.902L56.1189 297.957L55.7919 297.012C54.5326 297.448 53.2797 297.877 52.0334 298.3L52.355 299.247ZM59.9213 296.629L60.2536 297.572C61.4811 297.14 62.7143 296.702 63.9531 296.258L63.6156 295.316L63.2781 294.375C62.0428 294.818 60.813 295.255 59.5889 295.686L59.9213 296.629ZM67.336 293.971L67.6787 294.91C68.9259 294.456 70.1784 293.995 71.436 293.528L71.0883 292.591L70.7405 291.653C69.4863 292.118 68.2372 292.578 66.9934 293.031L67.336 293.971ZM74.8214 291.195L75.1742 292.13C76.3974 291.669 77.6251 291.203 78.8573 290.73L78.4995 289.797L78.1417 288.863C76.9129 289.334 75.6885 289.799 74.4686 290.259L74.8214 291.195ZM82.2039 288.366L82.5666 289.298C83.8073 288.815 85.0522 288.327 86.3011 287.833L85.9334 286.903L85.5658 285.973C84.3201 286.465 83.0785 286.953 81.8411 287.434L82.2039 288.366ZM89.6098 285.438L89.9823 286.366C91.2001 285.877 92.4215 285.383 93.6464 284.884L93.269 283.958L92.8916 283.032C91.67 283.53 90.4518 284.023 89.2372 284.51L89.6098 285.438ZM96.9488 282.447L97.331 283.371C98.5626 282.862 99.7974 282.347 101.035 281.828L100.648 280.906L100.261 279.984C99.0265 280.502 97.7949 281.015 96.5666 281.523L96.9488 282.447ZM104.282 279.369L104.673 280.289C105.883 279.774 107.096 279.254 108.312 278.729L107.915 277.811L107.518 276.893C106.306 277.416 105.097 277.935 103.89 278.449L104.282 279.369ZM111.564 276.223L111.966 277.139C113.186 276.604 114.409 276.064 115.635 275.519L115.229 274.605L114.822 273.692C113.6 274.235 112.38 274.773 111.163 275.307L111.564 276.223ZM118.828 272.994L119.238 273.906C120.439 273.365 121.642 272.819 122.846 272.269L122.43 271.359L122.015 270.45C120.813 270.999 119.614 271.543 118.417 272.083L118.828 272.994ZM126.045 269.696L126.465 270.603C127.674 270.044 128.884 269.479 130.095 268.91L129.67 268.005L129.245 267.1C128.036 267.667 126.83 268.23 125.624 268.789L126.045 269.696ZM133.24 266.317L133.669 267.219C134.859 266.653 136.05 266.082 137.242 265.507L136.808 264.606L136.373 263.705C135.184 264.279 133.996 264.849 132.81 265.414L133.24 266.317ZM140.384 262.868L140.824 263.767C142.018 263.182 143.215 262.593 144.412 261.999L143.968 261.103L143.523 260.207C142.329 260.799 141.136 261.387 139.945 261.97L140.384 262.868ZM147.509 259.336L147.958 260.229C149.135 259.638 150.314 259.042 151.493 258.441L151.039 257.55L150.586 256.659C149.41 257.258 148.234 257.852 147.06 258.442L147.509 259.336ZM154.575 255.738L155.033 256.626C156.214 256.017 157.395 255.403 158.577 254.785L158.114 253.899L157.65 253.013C156.472 253.629 155.294 254.241 154.116 254.849L154.575 255.738ZM161.626 252.05L162.094 252.934C163.259 252.317 164.424 251.695 165.589 251.069L165.116 250.188L164.643 249.307C163.481 249.931 162.319 250.551 161.157 251.167L161.626 252.05ZM168.608 248.301L169.086 249.179C170.251 248.545 171.417 247.906 172.583 247.263L172.1 246.388L171.617 245.512C170.455 246.153 169.292 246.79 168.13 247.422L168.608 248.301ZM175.58 244.456L176.067 245.329C177.218 244.686 178.369 244.039 179.519 243.388L179.027 242.517L178.534 241.647C177.387 242.297 176.239 242.942 175.092 243.583L175.58 244.456ZM182.472 240.553L182.97 241.421C184.12 240.761 185.27 240.097 186.419 239.428L185.916 238.564L185.414 237.7C184.268 238.366 183.121 239.028 181.975 239.686L182.472 240.553ZM189.358 236.549L189.865 237.411C191.002 236.742 192.137 236.068 193.272 235.39L192.759 234.532L192.247 233.673C191.115 234.349 189.983 235.02 188.85 235.688L189.358 236.549ZM196.157 232.489L196.674 233.345C197.808 232.659 198.94 231.968 200.072 231.274L199.549 230.422L199.026 229.569C197.898 230.262 196.769 230.95 195.639 231.634L196.157 232.489ZM202.937 228.33L203.465 229.179C204.589 228.48 205.711 227.777 206.833 227.07L206.3 226.224L205.767 225.378C204.649 226.083 203.529 226.784 202.409 227.481L202.937 228.33ZM209.646 224.101L210.184 224.944C211.3 224.231 212.415 223.514 213.528 222.793L212.984 221.954L212.441 221.115C211.331 221.833 210.22 222.548 209.107 223.259L209.646 224.101ZM216.315 219.782L216.864 220.618C217.973 219.89 219.081 219.158 220.187 218.421L219.633 217.589L219.079 216.756C217.976 217.49 216.872 218.22 215.767 218.946L216.315 219.782ZM222.924 215.383L223.483 216.212C224.58 215.471 225.676 214.727 226.77 213.978L226.205 213.153L225.64 212.327C224.55 213.074 223.458 213.816 222.364 214.554L222.924 215.383ZM229.476 210.898L230.047 211.72C231.137 210.963 232.226 210.202 233.312 209.437L232.737 208.619L232.161 207.802C231.078 208.564 229.993 209.322 228.906 210.077L229.476 210.898ZM235.972 206.325L236.553 207.139C237.631 206.37 238.706 205.597 239.779 204.82L239.193 204.01L238.606 203.2C237.537 203.974 236.465 204.745 235.391 205.512L235.972 206.325ZM242.4 201.67L242.992 202.476C244.061 201.69 245.128 200.901 246.192 200.107L245.595 199.306L244.997 198.504C243.936 199.295 242.873 200.081 241.808 200.864L242.4 201.67ZM248.771 196.92L249.375 197.718C250.431 196.919 251.484 196.116 252.535 195.309L251.926 194.516L251.317 193.723C250.27 194.527 249.22 195.327 248.168 196.123L248.771 196.92ZM255.066 192.088L255.68 192.876C256.726 192.062 257.77 191.243 258.81 190.42L258.19 189.635L257.569 188.851C256.533 189.671 255.493 190.487 254.451 191.299L255.066 192.088ZM261.298 187.158L261.924 187.938C262.957 187.109 263.987 186.275 265.014 185.437L264.382 184.662L263.75 183.887C262.727 184.722 261.701 185.552 260.671 186.379L261.298 187.158ZM267.449 182.143L268.087 182.913C269.108 182.068 270.126 181.218 271.141 180.364L270.497 179.599L269.854 178.834C268.842 179.684 267.828 180.53 266.811 181.373L267.449 182.143ZM273.527 177.031L274.176 177.791C275.185 176.93 276.19 176.064 277.191 175.195L276.536 174.44L275.88 173.685C274.883 174.551 273.882 175.413 272.877 176.271L273.527 177.031ZM279.523 171.826L280.185 172.576C281.179 171.699 282.17 170.818 283.157 169.932L282.49 169.188L281.822 168.443C280.839 169.325 279.852 170.202 278.862 171.076L279.523 171.826ZM285.435 166.525L286.109 167.265C287.089 166.371 288.066 165.474 289.039 164.572L288.359 163.839L287.679 163.105C286.71 164.003 285.738 164.897 284.762 165.786L285.435 166.525ZM291.26 161.128L291.946 161.856C292.911 160.946 293.872 160.033 294.83 159.115L294.138 158.393L293.446 157.671C292.492 158.585 291.535 159.495 290.574 160.4L291.26 161.128ZM296.992 155.633L297.69 156.349C298.64 155.423 299.585 154.493 300.526 153.559L299.822 152.849L299.118 152.14C298.18 153.07 297.239 153.996 296.294 154.917L296.992 155.633ZM302.628 150.04L303.338 150.744C304.272 149.801 305.201 148.854 306.126 147.903L305.409 147.206L304.692 146.509C303.771 147.456 302.846 148.398 301.917 149.337L302.628 150.04ZM308.164 144.347L308.887 145.038C309.803 144.078 310.714 143.115 311.621 142.147L310.892 141.463L310.162 140.78C309.26 141.743 308.352 142.702 307.44 143.656L308.164 144.347ZM313.593 138.555L314.329 139.232C315.227 138.256 316.121 137.275 317.01 136.29L316.268 135.62L315.526 134.95C314.641 135.93 313.751 136.906 312.857 137.878L313.593 138.555ZM318.914 132.66L319.663 133.323C320.542 132.329 321.417 131.332 322.287 130.33L321.532 129.675L320.777 129.019C319.911 130.016 319.041 131.008 318.166 131.997L318.914 132.66ZM324.119 126.665L324.881 127.313C325.741 126.303 326.595 125.288 327.445 124.27L326.677 123.629L325.909 122.989C325.064 124.002 324.213 125.012 323.358 126.017L324.119 126.665ZM329.205 120.567L329.98 121.2C330.819 120.172 331.654 119.14 332.482 118.104L331.702 117.48L330.921 116.855C330.096 117.885 329.266 118.912 328.431 119.934L329.205 120.567ZM334.166 114.367L334.953 114.984C335.771 113.94 336.583 112.891 337.39 111.838L336.597 111.23L335.803 110.622C335 111.669 334.192 112.712 333.378 113.751L334.166 114.367ZM338.995 108.066L339.796 108.666C340.592 107.604 341.382 106.538 342.166 105.467L341.36 104.876L340.553 104.285C339.773 105.349 338.987 106.41 338.195 107.466L338.995 108.066ZM343.69 101.662L344.502 102.244C345.275 101.165 346.042 100.082 346.803 98.9952L345.984 98.4218L345.164 97.8485C344.408 98.9296 343.645 100.007 342.877 101.079L343.69 101.662ZM348.241 95.1569L349.067 95.7211C349.816 94.6254 350.558 93.5256 351.294 92.4215L350.463 91.8667L349.631 91.3119C348.898 92.4097 348.16 93.5033 347.416 94.5927L348.241 95.1569ZM352.646 88.5512L353.484 89.0965C354.208 87.9839 354.925 86.8671 355.636 85.746L354.792 85.2105L353.947 84.6749C353.241 85.7895 352.527 86.8998 351.808 88.006L352.646 88.5512ZM356.899 81.8446L357.749 82.3702C358.446 81.2418 359.137 80.1092 359.821 78.9723L358.964 78.4568L358.107 77.9413C357.427 79.0714 356.741 80.1973 356.048 81.319L356.899 81.8446ZM360.99 75.0436L361.853 75.5488C362.523 74.4034 363.187 73.2537 363.844 72.0997L362.975 71.605L362.106 71.1102C361.453 72.2571 360.793 73.3998 360.127 74.5384L360.99 75.0436ZM364.919 68.1409L365.794 68.625C366.437 67.4643 367.072 66.2994 367.7 65.1301L366.819 64.6569L365.938 64.1836C365.314 65.3455 364.683 66.5033 364.044 67.6568L364.919 68.1409ZM368.675 61.1509L369.561 61.6132C370.175 60.4366 370.781 59.2557 371.38 58.0706L370.488 57.6195L369.595 57.1684C369 58.346 368.398 59.5194 367.788 60.6886L368.675 61.1509ZM372.257 54.0627L373.156 54.5025C373.74 53.3095 374.317 52.1122 374.886 50.9106L373.982 50.4824L373.079 50.0542C372.513 51.248 371.94 52.4376 371.359 53.623L372.257 54.0627ZM375.656 46.8907L376.565 47.3073C377.118 46.1019 377.663 44.8923 378.2 43.6785L377.286 43.2737L376.371 42.869C375.837 44.0749 375.296 45.2766 374.747 46.4741L375.656 46.8907ZM378.869 39.6314L379.789 40.0242C380.311 38.8018 380.825 37.5752 381.332 36.3443L380.407 35.9637L379.483 35.5831C378.979 36.8059 378.468 38.0244 377.95 39.2387L378.869 39.6314ZM381.893 32.286L382.822 32.6543C383.31 31.4233 383.79 30.1881 384.262 28.9487L383.327 28.5928L382.393 28.2369C381.924 29.468 381.447 30.6949 380.963 31.9177L381.893 32.286ZM384.715 24.8744L385.654 25.2178C386.11 23.9699 386.559 22.7179 386.999 21.4616L386.055 21.1309L385.111 20.8003C384.674 22.0481 384.229 23.2916 383.776 24.5311L384.715 24.8744ZM387.346 17.3651L388.294 17.6829C388.714 16.4301 389.126 15.1731 389.529 13.912L388.577 13.6071L387.625 13.3022C387.224 14.5547 386.815 15.803 386.398 17.0473L387.346 17.3651ZM389.76 9.82435L390.716 10.1162C391.104 8.84685 391.483 7.5733 391.854 6.2956L390.893 6.01684L389.933 5.73808C389.565 7.00699 389.188 8.27177 388.803 9.53245L389.76 9.82435ZM391.977 2.18452L392.941 2.45001C393.118 1.80693 393.293 1.1628 393.466 0.517638L392.5 0.258819L391.534 0C391.363 0.640705 391.189 1.28038 391.013 1.91902L391.977 2.18452Z" fill="var(--stroke-0, black)"/>
</svg>
